<svg xmlns="http://www.w3.org/2000/svg" xmlns:xlink="http://www.w3.org/1999/xlink" viewBox="0 0 752 423"><defs><style>.a{fill:none;}.b{fill:#ede6d4;}.c{clip-path:url(#a);}.d{fill:#fc3e00;}.e{fill:#5073b3;}.f{fill:#eb9b94;}.g{fill:#015d8e;}.h{fill:#e5ceae;}.i{fill:#e58d05;}</style><clipPath id="a"><rect class="a" width="752" height="423"/></clipPath></defs><rect class="b" width="752" height="423"/><g class="c"><path class="d" d="M627.969,364.593A124.03,124.03,0,0,1,752,240.562V210.531a154.062,154.062,0,0,0,0,308.123v-30.03A124.032,124.032,0,0,1,627.969,364.593Z"/><path class="e" d="M676.327,364.593A75.673,75.673,0,0,1,752,288.918V270.6a94,94,0,1,0,0,187.993V440.268A75.673,75.673,0,0,1,676.327,364.593Z"/><path class="d" d="M149.946,423a97.705,97.705,0,0,1,97.621-94V295.228a97.712,97.712,0,1,0-195.424,0L52.14,423Z"/><path class="f" d="M247.567,423V329a97.705,97.705,0,0,0-97.621,94Z"/><path class="e" d="M489.467,238.7V0h-85.3V123.912a85.3,85.3,0,0,1-85.3,85.3V238.7a85.3,85.3,0,0,0,170.607,0Z"/><path class="f" d="M233.557,0V123.912a85.3,85.3,0,0,0,85.3,85.3V0Z"/><path class="g" d="M404.164,123.912V0h-85.3V209.215A85.3,85.3,0,0,0,404.164,123.912Z"/><ellipse class="h" cx="490.302" cy="135.951" rx="67.255" ry="66.539" transform="translate(44.266 380.758) rotate(-44.258)"/><path class="i" d="M538.47,89.014A65.946,65.946,0,0,0,489.92,69.13l.764,133.643a67.346,67.346,0,0,0,46.054-19.167C563.342,157.683,564.117,115.334,538.47,89.014Z"/><path class="i" d="M89.551,16.829l-149.875.218.155,107.124,149.876-.218a53.562,53.562,0,0,0-.156-107.124Z"/><path class="d" d="M89.892,104.588a8.559,8.559,0,1,1,8.557,8.557A8.556,8.556,0,0,1,89.892,104.588Z"/><path class="d" d="M65.772,104.588a8.559,8.559,0,1,1,8.56,8.557A8.557,8.557,0,0,1,65.772,104.588Z"/><path class="d" d="M41.653,104.588a8.559,8.559,0,1,1,8.557,8.557A8.556,8.556,0,0,1,41.653,104.588Z"/><path class="d" d="M17.534,104.588a8.558,8.558,0,1,1,8.559,8.557A8.557,8.557,0,0,1,17.534,104.588Z"/><path class="e" d="M89.892,138.7a8.559,8.559,0,1,1,8.557,8.558A8.557,8.557,0,0,1,89.892,138.7Z"/><path class="e" d="M65.772,138.7a8.559,8.559,0,1,1,8.56,8.558A8.558,8.558,0,0,1,65.772,138.7Z"/><path class="e" d="M41.653,138.7a8.559,8.559,0,1,1,8.557,8.558A8.557,8.557,0,0,1,41.653,138.7Z"/><path class="e" d="M17.534,138.7a8.558,8.558,0,1,1,8.559,8.558A8.557,8.557,0,0,1,17.534,138.7Z"/><path class="e" d="M89.892,172.807a8.559,8.559,0,1,1,8.557,8.557A8.557,8.557,0,0,1,89.892,172.807Z"/><path class="e" d="M65.772,172.807a8.559,8.559,0,1,1,8.56,8.557A8.558,8.558,0,0,1,65.772,172.807Z"/><path class="e" d="M41.653,172.807a8.559,8.559,0,1,1,8.557,8.557A8.557,8.557,0,0,1,41.653,172.807Z"/><path class="e" d="M17.534,172.807a8.558,8.558,0,1,1,8.559,8.557A8.557,8.557,0,0,1,17.534,172.807Z"/><rect class="e" x="519.286" y="349.019" width="56.854" height="73.981"/><rect class="e" x="519.286" y="312.635" width="56.854" height="24.559"/><rect class="e" x="519.286" y="276.169" width="56.854" height="24.561"/><rect class="e" x="519.286" y="253.16" width="56.854" height="12.28"/><path class="i" d="M635.9,14.638a7.7,7.7,0,1,1-7.7-7.7A7.7,7.7,0,0,1,635.9,14.638Z"/><path class="i" d="M657.593,14.638a7.7,7.7,0,1,1-7.7-7.7A7.7,7.7,0,0,1,657.593,14.638Z"/><path class="i" d="M679.294,14.638a7.7,7.7,0,1,1-7.7-7.7A7.7,7.7,0,0,1,679.294,14.638Z"/><path class="i" d="M635.9,38.091a7.7,7.7,0,1,1-7.7-7.7A7.7,7.7,0,0,1,635.9,38.091Z"/><path class="i" d="M657.593,38.091a7.7,7.7,0,1,1-7.7-7.7A7.7,7.7,0,0,1,657.593,38.091Z"/><path class="i" d="M679.294,38.091a7.7,7.7,0,1,1-7.7-7.7A7.695,7.695,0,0,1,679.294,38.091Z"/><path class="i" d="M635.9,61.538a7.7,7.7,0,1,1-7.7-7.7A7.7,7.7,0,0,1,635.9,61.538Z"/><path class="i" d="M657.593,61.538a7.7,7.7,0,1,1-7.7-7.7A7.7,7.7,0,0,1,657.593,61.538Z"/><path class="i" d="M679.294,61.538a7.7,7.7,0,1,1-7.7-7.7A7.7,7.7,0,0,1,679.294,61.538Z"/><path class="i" d="M700.994,61.538a7.7,7.7,0,1,1-7.7-7.7A7.7,7.7,0,0,1,700.994,61.538Z"/><path class="i" d="M722.7,61.538a7.7,7.7,0,1,1-7.7-7.7A7.7,7.7,0,0,1,722.7,61.538Z"/><path class="i" d="M744.4,61.538a7.7,7.7,0,1,1-7.7-7.7A7.7,7.7,0,0,1,744.4,61.538Z"/><path class="i" d="M635.9,84.991a7.7,7.7,0,1,1-7.7-7.7A7.7,7.7,0,0,1,635.9,84.991Z"/><path class="i" d="M657.593,84.991a7.7,7.7,0,1,1-7.7-7.7A7.7,7.7,0,0,1,657.593,84.991Z"/><path class="i" d="M679.294,84.991a7.7,7.7,0,1,1-7.7-7.7A7.7,7.7,0,0,1,679.294,84.991Z"/><path class="i" d="M700.994,84.991a7.7,7.7,0,1,1-7.7-7.7A7.7,7.7,0,0,1,700.994,84.991Z"/><path class="i" d="M722.7,84.991a7.7,7.7,0,1,1-7.7-7.7A7.7,7.7,0,0,1,722.7,84.991Z"/><path class="i" d="M744.4,84.991a7.7,7.7,0,1,1-7.7-7.7A7.7,7.7,0,0,1,744.4,84.991Z"/><path class="i" d="M679.294,108.444a7.7,7.7,0,1,1-7.7-7.7A7.7,7.7,0,0,1,679.294,108.444Z"/><path class="i" d="M700.994,108.444a7.7,7.7,0,1,1-7.7-7.7A7.7,7.7,0,0,1,700.994,108.444Z"/><path class="i" d="M722.7,108.444a7.7,7.7,0,1,1-7.7-7.7A7.7,7.7,0,0,1,722.7,108.444Z"/><path class="i" d="M744.4,108.444a7.7,7.7,0,1,1-7.7-7.7A7.7,7.7,0,0,1,744.4,108.444Z"/><path class="i" d="M679.294,131.89a7.7,7.7,0,1,1-7.7-7.7A7.7,7.7,0,0,1,679.294,131.89Z"/><path class="i" d="M700.994,131.89a7.7,7.7,0,1,1-7.7-7.7A7.7,7.7,0,0,1,700.994,131.89Z"/><path class="i" d="M722.7,131.89a7.7,7.7,0,1,1-7.7-7.7A7.7,7.7,0,0,1,722.7,131.89Z"/><path class="i" d="M744.4,131.89a7.7,7.7,0,1,1-7.7-7.7A7.7,7.7,0,0,1,744.4,131.89Z"/><rect class="f" x="214.339" y="383.935" width="246.976" height="9.749"/><rect class="e" x="214.339" y="383.935" width="33.319" height="9.749"/></g></svg>