<svg xmlns="http://www.w3.org/2000/svg" xmlns:xlink="http://www.w3.org/1999/xlink" viewBox="0 0 400 400"><defs><style>.a{fill:none;}.b{fill:#294f7c;}.c{clip-path:url(#a);}.d{clip-path:url(#b);}.e{fill:#2c3b42;}.f{fill:#fcd6cd;}.g{fill:#f6c6bd;}.h{fill:#fddbcc;}.i{fill:#badcd4;}.j{fill:#fbcfca;}.k{fill:#98c6b8;}.l{fill:#84b3a3;}.m{fill:#d8aaa4;}.n{fill:#e95554;}.o{fill:#f59390;}.p{fill:#fff;}.q{fill:#af5856;}.r{fill:#d3b598;}.s{fill:#d1817d;}.t{fill:#fce1c2;}.u{fill:#10120e;}.v{fill:#2b2724;}.w{fill:#e1b2bf;}.x{fill:#1d1a17;}.y{fill:#5d351a;}.z{fill:#f3eae3;}.aa{fill:#e8ccb4;}.ab{fill:#443d36;}</style><clipPath id="a"><circle class="a" cx="201.149" cy="199.733" r="157.7"/></clipPath><clipPath id="b"><circle class="a" cx="201.282" cy="199.733" r="157.7"/></clipPath></defs><path class="b" d="M200.1,369a.9.9,0,0,1,0-1.8c1.6,0,3.2,0,4.8-.1a.906.906,0,0,1,.2,1.8H205C203.3,369,201.7,369,200.1,369Zm-4.8,0h0c-1.6,0-3.3-.1-4.8-.2a.9.9,0,1,1,0-1.8h.1c1.6.1,3.2.2,4.8.2a.9.9,0,0,1,.9.9,1.063,1.063,0,0,1-1,.9Zm14.4-.2a.809.809,0,0,1-.8-.9.86.86,0,0,1,.8-.8l4.8-.3a.863.863,0,1,1,.3,1.7h-.1c-1.7,0-3.4.2-5,.3Zm-24-.4h0c-1.7-.1-3.3-.3-4.9-.5a.921.921,0,0,1-.7-1.1c.1-.4.5-.8.9-.7,1.6.2,3.2.3,4.8.5a.974.974,0,0,1,.8,1,.948.948,0,0,1-.9.8Zm33.5-.5a.9.9,0,0,1-.9-.9.948.948,0,0,1,.8-.9c1.6-.2,3.2-.4,4.7-.6a.974.974,0,0,1,1,.8.961.961,0,0,1-.7.9l-4.8.6c0,.1,0,.1-.1.1Zm-43-.5h-.1c-1.6-.2-3.2-.5-4.8-.7a.921.921,0,0,1-.7-1.1.993.993,0,0,1,1-.7c1.6.3,3.2.5,4.7.7a.871.871,0,0,1,.7,1,1.085,1.085,0,0,1-.8.8Zm52.5-.8a.9.9,0,0,1-.9-.9.961.961,0,0,1,.7-.9c1.6-.3,3.1-.6,4.7-.9a.9.9,0,0,1,1,.8.871.871,0,0,1-.7,1c-1.6.3-3.2.6-4.7.9Zm-62-.9h-.2c-1.6-.3-3.2-.7-4.7-1a.955.955,0,0,1-.6-1.1.832.832,0,0,1,1-.6c1.5.4,3.1.7,4.7,1a.921.921,0,0,1,.7,1.1,1.013,1.013,0,0,1-.9.6Zm71.5-1a.9.9,0,0,1-.9-.9.849.849,0,0,1,.7-.8c1.5-.4,3.1-.7,4.6-1.1a.783.783,0,0,1,1,.7.887.887,0,0,1-.6,1c-1.5.4-3.1.8-4.7,1.2a.1.1,0,0,0-.1-.1Zm-80.9-1.1h-.2c-1.6-.4-3.1-.8-4.7-1.3a.883.883,0,0,1-.5-1.2,1.1,1.1,0,0,1,1-.6c1.5.4,3.1.9,4.6,1.3a.8.8,0,0,1,.6,1.1.773.773,0,0,1-.8.7Zm90.1-1.4a.9.9,0,0,1-.9-.9.871.871,0,0,1,.6-.8c1.5-.4,3.1-.9,4.6-1.4a.921.921,0,0,1,1.1.7.825.825,0,0,1-.5,1c-1.5.5-3.1,1-4.6,1.4Zm-99.3-1.3h-.3c-1.5-.5-3.1-1-4.6-1.6a.886.886,0,0,1,.5-1.7h.1c1.5.5,3,1.1,4.5,1.5a.955.955,0,0,1,.6,1.1.849.849,0,0,1-.8.7Zm108.5-1.6a.9.9,0,0,1-.9-.9.76.76,0,0,1,.6-.8c1.5-.5,3-1.1,4.5-1.7a.863.863,0,0,1,1.1.6,1,1,0,0,1-.5,1.1c-1.5.6-3,1.1-4.5,1.7Zm-117.5-1.7a.367.367,0,0,1-.3-.1l-4.5-1.8a.962.962,0,0,1-.4-1.2.841.841,0,0,1,1.1-.4c1.5.6,3,1.2,4.4,1.8a.883.883,0,0,1,.5,1.2,1.02,1.02,0,0,1-.8.5Zm126.4-1.8a.9.9,0,0,1-.9-.9.792.792,0,0,1,.5-.8c1.5-.6,2.9-1.3,4.4-1.9a.967.967,0,0,1,1.2.5.841.841,0,0,1-.4,1.1c-1.4.7-2.9,1.3-4.4,1.9A.756.756,0,0,1,265.5,355.8Zm-135.3-1.9a.6.6,0,0,1-.4-.1c-1.5-.7-2.9-1.4-4.4-2.1a.856.856,0,0,1-.3-1.2.949.949,0,0,1,1.1-.4c1.4.7,2.9,1.4,4.3,2.1a.926.926,0,0,1,.4,1.2A.752.752,0,0,1,130.2,353.9Zm144-2.1a.9.9,0,0,1-.9-.9,1.02,1.02,0,0,1,.5-.8c1.4-.7,2.8-1.4,4.2-2.2a.883.883,0,0,1,1.2.5.909.909,0,0,1-.3,1.1c-1.4.7-2.9,1.5-4.3,2.2a.6.6,0,0,1-.4.1Zm-152.6-2.2a.6.6,0,0,1-.4-.1c-1.4-.7-2.8-1.5-4.2-2.3a.954.954,0,0,1-.3-1.2.8.8,0,0,1,1.1-.3c1.4.8,2.8,1.6,4.2,2.3a.962.962,0,0,1,.4,1.2.909.909,0,0,1-.8.4Zm161.1-2.3a.9.9,0,0,1-.9-.9,1.234,1.234,0,0,1,.4-.8c1.4-.8,2.8-1.6,4.1-2.4a.962.962,0,0,1,1.2.4.8.8,0,0,1-.3,1.1l-4.2,2.4c0,.2-.2.2-.3.2Zm-169.5-2.4a.9.9,0,0,1-.5-.1c-1.4-.8-2.8-1.7-4.1-2.6a.948.948,0,0,1-.2-1.3.731.731,0,0,1,1.1-.2c1.3.9,2.7,1.7,4.1,2.5a.856.856,0,0,1,.3,1.2.752.752,0,0,1-.7.5Zm177.7-2.5a.9.9,0,0,1-.9-.9.842.842,0,0,1,.4-.7c1.3-.9,2.7-1.7,4-2.6a.922.922,0,1,1,1.2,1.4l-.1.1c-1.3.9-2.7,1.8-4,2.7a1.146,1.146,0,0,0-.6,0Zm-185.8-2.7a.764.764,0,0,1-.5-.2c-1.3-.9-2.7-1.8-3.9-2.8a.935.935,0,0,1-.1-1.3,1.063,1.063,0,0,1,1.2-.2c1.3.9,2.6,1.9,3.9,2.8a.932.932,0,0,1,.2,1.3.909.909,0,0,1-.8.4ZM298.8,337a.9.9,0,0,1-.9-.9.755.755,0,0,1,.4-.7c1.3-.9,2.6-1.9,3.8-2.9a.942.942,0,0,1,1.3.1.859.859,0,0,1-.1,1.3.1.1,0,0,0-.1.1c-1.3,1-2.6,2-3.9,2.9a4.331,4.331,0,0,1-.5.1ZM97.3,334a.764.764,0,0,1-.5-.2c-1.3-1-2.5-2-3.8-3a.93.93,0,0,1,1.1-1.5l.1.1c1.2,1,2.5,2,3.7,3a.948.948,0,0,1,.2,1.3.829.829,0,0,1-.8.3Zm209.1-2.9a.9.9,0,0,1-.9-.9.908.908,0,0,1,.3-.7c1.2-1,2.5-2,3.6-3.1a.919.919,0,0,1,1.3,1.3l-.1.1c-1.2,1-2.4,2.1-3.7,3.1A.764.764,0,0,1,306.4,331.1ZM89.9,328a1.421,1.421,0,0,1-.6-.2c-1.2-1-2.4-2.1-3.6-3.2a.922.922,0,1,1,1.2-1.4l.1.1c1.2,1.1,2.4,2.1,3.6,3.2a.935.935,0,0,1,.1,1.3,2.353,2.353,0,0,1-.8.2Zm223.7-3.2a.9.9,0,0,1-.9-.9,1.08,1.08,0,0,1,.3-.7c1.2-1.1,2.3-2.2,3.5-3.3a.922.922,0,0,1,1.4,1.2l-.1.1c-1.1,1.1-2.3,2.2-3.5,3.3a.908.908,0,0,1-.7.3ZM82.8,321.5a.713.713,0,0,1-.6-.3l-3.4-3.4a.942.942,0,0,1,.1-1.3.91.91,0,0,1,1.2,0c1.1,1.1,2.2,2.3,3.4,3.4a.853.853,0,0,1,0,1.3A.908.908,0,0,1,82.8,321.5Zm237.7-3.4a.9.9,0,0,1-.9-.9.713.713,0,0,1,.3-.6c1.1-1.1,2.2-2.3,3.3-3.5a.922.922,0,0,1,1.4,1.2l-.1.1c-1.1,1.2-2.2,2.4-3.3,3.5A1.445,1.445,0,0,1,320.5,318.1ZM76.1,314.6a.908.908,0,0,1-.7-.3c-1.1-1.2-2.2-2.4-3.2-3.6a.948.948,0,0,1,.2-1.3.91.91,0,0,1,1.2.1c1,1.2,2.1,2.4,3.2,3.6a.942.942,0,0,1-.1,1.3.845.845,0,0,1-.6.2ZM327,311.1a.9.9,0,0,1-.9-.9,1.421,1.421,0,0,1,.2-.6c1-1.2,2.1-2.4,3.1-3.7a.93.93,0,0,1,1.5,1.1l-.1.1c-1,1.2-2.1,2.5-3.1,3.7A1.493,1.493,0,0,1,327,311.1ZM69.8,307.3a.908.908,0,0,1-.7-.3c-1-1.2-2-2.5-3-3.8a.922.922,0,0,1,1.4-1.2.1.1,0,0,0,.1.1c1,1.3,2,2.5,3,3.7a.935.935,0,0,1-.1,1.3.844.844,0,0,1-.7.2Zm263.3-3.7a.764.764,0,0,1-.5-.2.948.948,0,0,1-.2-1.3c1-1.3,1.9-2.5,2.9-3.8a.875.875,0,0,1,1.5.9.1.1,0,0,1-.1.1c-.9,1.3-1.9,2.6-2.9,3.9A.755.755,0,0,1,333.1,303.6ZM64,299.7a.67.67,0,0,1-.7-.4c-.9-1.3-1.9-2.6-2.8-3.9a.922.922,0,0,1,1.4-1.2l.1.1c.9,1.3,1.8,2.6,2.8,3.9a.948.948,0,0,1-.2,1.3.735.735,0,0,1-.6.2Zm274.8-3.8a.9.9,0,0,1-.9-.9c0-.2.1-.3.2-.5.9-1.3,1.8-2.6,2.6-4a.948.948,0,0,1,1.3-.2.731.731,0,0,1,.2,1.1c-.9,1.3-1.8,2.7-2.7,4-.2.3-.4.5-.7.5ZM58.6,291.8a1.234,1.234,0,0,1-.8-.4c-.9-1.3-1.7-2.7-2.6-4.1a.93.93,0,1,1,1.5-1.1.1.1,0,0,0,.1.1c.8,1.4,1.7,2.7,2.5,4a.837.837,0,0,1-.3,1.2.373.373,0,0,1-.4.3Zm285.4-4a.969.969,0,0,1-.8-1.4c.8-1.4,1.6-2.7,2.4-4.1a.894.894,0,1,1,1.6.8.1.1,0,0,1-.1.1l-2.4,4.2a.842.842,0,0,1-.7.4ZM53.6,283.6a1.02,1.02,0,0,1-.8-.5c-.8-1.4-1.6-2.8-2.3-4.2a.883.883,0,0,1,.5-1.2.909.909,0,0,1,1.1.3c.7,1.4,1.5,2.8,2.3,4.2a.926.926,0,0,1-.3,1.2A.551.551,0,0,1,53.6,283.6Zm295.1-4.2a.9.9,0,0,1-.9-.9.6.6,0,0,1,.1-.4c.7-1.4,1.5-2.8,2.2-4.3a.856.856,0,0,1,1.2-.3.949.949,0,0,1,.4,1.1c-.7,1.4-1.5,2.9-2.2,4.3a1.02,1.02,0,0,1-.8.5ZM49.1,275.2a.891.891,0,0,1-.8-.5c-.7-1.4-1.4-2.9-2.1-4.3a.967.967,0,0,1,.5-1.2.841.841,0,0,1,1.1.4c.7,1.4,1.3,2.9,2,4.3a.962.962,0,0,1-.4,1.2.438.438,0,0,1-.3.1ZM353,270.8a.9.9,0,0,1-.9-.9.6.6,0,0,1,.1-.4c.7-1.4,1.3-2.9,1.9-4.4a.962.962,0,0,1,1.2-.4.841.841,0,0,1,.4,1.1c-.6,1.5-1.3,3-2,4.4a.73.73,0,0,1-.7.6ZM45.1,266.5a.792.792,0,0,1-.8-.5l-1.8-4.5a.863.863,0,0,1,.6-1.1,1,1,0,0,1,1.1.5c.6,1.5,1.2,3,1.8,4.4a.883.883,0,0,1-.5,1.2C45.4,266.4,45.3,266.5,45.1,266.5Zm311.6-4.6a.9.9,0,0,1-.9-.9.367.367,0,0,1,.1-.3c.6-1.5,1.1-3,1.7-4.5a.886.886,0,0,1,1.7.5.1.1,0,0,1-.1.1c-.5,1.5-1.1,3-1.7,4.5A.76.76,0,0,1,356.7,261.9Zm-315-4.4a.76.76,0,0,1-.8-.6c-.5-1.5-1.1-3-1.6-4.6a.921.921,0,0,1,.7-1.1.825.825,0,0,1,1,.5l1.5,4.5a.815.815,0,0,1-.5,1.1c-.1.2-.2.2-.3.2ZM360,252.9h-.3a.955.955,0,0,1-.6-1.1c.5-1.5,1-3,1.4-4.6a.922.922,0,1,1,1.8.4v.1c-.5,1.5-.9,3.1-1.4,4.6A1.8,1.8,0,0,1,360,252.9ZM38.7,248.4a1.149,1.149,0,0,1-.9-.6c-.5-1.5-.9-3.1-1.3-4.6a.783.783,0,0,1,.7-1,.887.887,0,0,1,1,.6c.4,1.5.8,3.1,1.3,4.6a.863.863,0,0,1-.6,1.1C38.8,248.4,38.8,248.4,38.7,248.4Zm324-4.8a.9.9,0,0,1-.9-.9v-.2c.4-1.5.8-3.1,1.1-4.6a.974.974,0,0,1,1-.8.908.908,0,0,1,.8,1v.1c-.4,1.6-.8,3.1-1.2,4.7a.761.761,0,0,1-.8.7ZM36.2,239.1a.961.961,0,0,1-.9-.7c-.4-1.6-.7-3.1-1-4.7a.886.886,0,0,1,1.7-.5v.1c.3,1.6.7,3.1,1,4.7a.921.921,0,0,1-.7,1.1Zm328.6-4.8h-.2a.921.921,0,0,1-.7-1.1c.3-1.6.6-3.1.9-4.7a.921.921,0,0,1,1.1-.7.993.993,0,0,1,.7,1c-.3,1.6-.6,3.2-.9,4.7a.948.948,0,0,1-.9.8ZM34.3,229.7a.961.961,0,0,1-.9-.7c-.3-1.6-.5-3.2-.8-4.8a.974.974,0,0,1,.8-1,.961.961,0,0,1,.9.7c.2,1.6.5,3.2.7,4.7a.783.783,0,0,1-.7,1C34.4,229.7,34.4,229.7,34.3,229.7Zm332.1-4.9h-.1a.974.974,0,0,1-.8-1c.2-1.6.4-3.2.6-4.7a.9.9,0,1,1,1.8,0v.1l-.6,4.8a.817.817,0,0,1-.9.8ZM33,220.2a.876.876,0,0,1-.9-.8c-.2-1.6-.3-3.2-.5-4.8a.9.9,0,0,1,.9-.9.948.948,0,0,1,.9.8c.1,1.6.3,3.2.5,4.8a.9.9,0,0,1-.8,1l-.1-.1Zm334.5-4.9h0a.919.919,0,0,1-.9-1l.3-4.8a.9.9,0,1,1,1.8,0v.1l-.3,4.8a.9.9,0,0,1-.9.9ZM32.1,210.7a.882.882,0,0,1-.9-.8c-.1-1.6-.2-3.2-.2-4.8a.9.9,0,0,1,.9-.9,1.063,1.063,0,0,1,.9.8c0,1.6.1,3.2.2,4.8.1.4-.3.8-.9.9Zm336-5h0a.9.9,0,0,1-.9-.9c0-1.6.1-3.2.1-4.8v-.3a.9.9,0,0,1,.9-.9h0a.9.9,0,0,1,.9.9v.3c0,1.6,0,3.2-.1,4.8C368.9,205.3,368.6,205.7,368.1,205.7ZM31.9,201.1a.9.9,0,0,1-.9-.9V200c0-1.6,0-3.1.1-4.7a.9.9,0,0,1,1.8,0c0,1.5-.1,3.1-.1,4.6v.2a.923.923,0,0,1-.9,1ZM368,195.8a.9.9,0,0,1-.9-.9c0-1.6-.1-3.2-.2-4.8a.9.9,0,0,1,.9-.9.948.948,0,0,1,.9.8c.1,1.6.2,3.2.2,4.8a.827.827,0,0,1-.9,1ZM32.1,191.5h0a.967.967,0,0,1-.9-.9l.3-4.8a.824.824,0,0,1,1-.7,1.063,1.063,0,0,1,.8.9l-.3,4.8A.887.887,0,0,1,32.1,191.5Zm335.4-5.3a.882.882,0,0,1-.9-.8c-.1-1.6-.3-3.2-.5-4.8a.9.9,0,0,1,.9-.9.961.961,0,0,1,.9.7c.2,1.6.3,3.2.5,4.8a.919.919,0,0,1-.9,1ZM32.9,181.9h0a.977.977,0,0,1-.9-1l.6-4.8a.906.906,0,0,1,1.8.2v.1c-.2,1.6-.4,3.2-.6,4.7a.817.817,0,0,1-.9.8Zm333.5-5.2a.948.948,0,0,1-.9-.8c-.2-1.6-.5-3.2-.8-4.7a.974.974,0,0,1,.8-1,1.041,1.041,0,0,1,1,.7c.3,1.6.5,3.2.8,4.8a.9.9,0,0,1-.8,1ZM34.3,172.4h-.2a.824.824,0,0,1-.7-1c.3-1.6.6-3.2.9-4.7a.974.974,0,0,1,1-.8.908.908,0,0,1,.8,1v.1c-.3,1.6-.6,3.1-.9,4.7A.961.961,0,0,1,34.3,172.4Zm330.5-5.2a.961.961,0,0,1-.9-.7c-.3-1.6-.7-3.1-1-4.7a.886.886,0,0,1,1.7-.5v.1c.4,1.6.7,3.1,1,4.7a.921.921,0,0,1-.7,1.1ZM36.2,163H36a.921.921,0,0,1-.7-1.1c.4-1.6.7-3.1,1.2-4.7a.955.955,0,0,1,1.1-.6.887.887,0,0,1,.6,1c-.4,1.5-.8,3.1-1.1,4.6C36.9,162.7,36.6,163,36.2,163Zm326.4-5.1a.961.961,0,0,1-.9-.7c-.4-1.5-.8-3.1-1.3-4.6a.967.967,0,0,1,.5-1.2,1.011,1.011,0,0,1,1.2.5v.1c.5,1.5.9,3.1,1.3,4.6a.945.945,0,0,1-.6,1.1l-.2.2Zm-324-4.2h-.3a.863.863,0,0,1-.6-1.1c.5-1.5.9-3.1,1.4-4.6a.888.888,0,0,1,1.7.5c-.5,1.5-1,3-1.4,4.6a.871.871,0,0,1-.8.6Zm321.2-5.1a1.149,1.149,0,0,1-.9-.6l-1.5-4.5a.863.863,0,0,1,.6-1.1,1,1,0,0,1,1.1.5c.5,1.5,1.1,3,1.6,4.6a.8.8,0,0,1-.6,1.1ZM41.5,144.5a.367.367,0,0,1-.3-.1.809.809,0,0,1-.5-1.1c.5-1.5,1.1-3,1.7-4.5a.962.962,0,0,1,1.2-.4,1,1,0,0,1,.5,1.1c-.6,1.5-1.1,3-1.7,4.5a.937.937,0,0,1-.9.5Zm315.1-4.9a.76.76,0,0,1-.8-.6c-.6-1.5-1.2-2.9-1.8-4.4a.894.894,0,0,1,1.6-.8.1.1,0,0,0,.1.1l1.8,4.5a.967.967,0,0,1-.5,1.2ZM45,135.6a.9.9,0,0,1-.9-.9.367.367,0,0,1,.1-.3c.6-1.5,1.3-3,1.9-4.4a.962.962,0,0,1,1.2-.4.841.841,0,0,1,.4,1.1c-.7,1.4-1.3,2.9-1.9,4.4A.953.953,0,0,1,45,135.6Zm307.9-4.8a.792.792,0,0,1-.8-.5c-.7-1.4-1.4-2.9-2-4.3a.883.883,0,0,1,.5-1.2.841.841,0,0,1,1.1.4c.7,1.4,1.4,2.9,2.1,4.3a.926.926,0,0,1-.4,1.2A1.338,1.338,0,0,1,352.9,130.8ZM49,126.8a.9.9,0,0,1-.9-.9.6.6,0,0,1,.1-.4c.7-1.4,1.4-2.9,2.2-4.3a.919.919,0,0,1,1.7.7.1.1,0,0,1-.1.1c-.7,1.4-1.5,2.8-2.2,4.3a.792.792,0,0,1-.8.5Zm299.6-4.6a1.02,1.02,0,0,1-.8-.5c-.7-1.4-1.5-2.8-2.3-4.2a.86.86,0,1,1,1.4-1,.1.1,0,0,0,.1.1c.8,1.4,1.6,2.8,2.3,4.2a.869.869,0,0,1-.4,1.2C348.9,122.2,348.8,122.2,348.6,122.2ZM53.5,118.3a.9.9,0,0,1-.9-.9c0-.2,0-.3.1-.4l2.4-4.2a.894.894,0,1,1,1.6.8.1.1,0,0,1-.1.1c-.8,1.4-1.6,2.8-2.4,4.1A.752.752,0,0,1,53.5,118.3Zm290.4-4.4a1.234,1.234,0,0,1-.8-.4c-.8-1.4-1.7-2.7-2.5-4a.93.93,0,1,1,1.5-1.1l.1.1c.9,1.3,1.7,2.7,2.6,4.1a.837.837,0,0,1-.3,1.2c-.3,0-.4.1-.6.1ZM58.5,110.1a.969.969,0,0,1-.8-1.4c.9-1.3,1.8-2.7,2.7-4a.854.854,0,0,1,1.3-.1.925.925,0,0,1,.2,1.2c-.9,1.3-1.8,2.7-2.6,4a1.909,1.909,0,0,1-.8.3Zm280.2-4.3a.67.67,0,0,1-.7-.4c-.9-1.3-1.8-2.6-2.8-3.9a.837.837,0,0,1,.3-1.2.925.925,0,0,1,1.2.2c.9,1.3,1.9,2.6,2.8,3.9a.948.948,0,0,1-.2,1.3,1.486,1.486,0,0,1-.6.1ZM63.9,102.1a.9.9,0,0,1-.9-.9.764.764,0,0,1,.2-.5c.9-1.3,1.9-2.6,2.9-3.9a.93.93,0,1,1,1.5,1.1.1.1,0,0,1-.1.1c-1,1.3-1.9,2.5-2.9,3.8a.779.779,0,0,1-.7.3Zm269.1-4a.908.908,0,0,1-.7-.3c-1-1.3-2-2.5-3-3.7a.919.919,0,0,1,1.3-1.3l.1.1c1,1.2,2,2.5,3,3.8a.948.948,0,0,1-.2,1.3A4.331,4.331,0,0,1,333,98.1ZM69.8,94.5a.9.9,0,0,1-.9-.9,1.421,1.421,0,0,1,.2-.6c1-1.2,2.1-2.5,3.1-3.7a.854.854,0,0,1,1.3,0,.91.91,0,0,1,.1,1.2c-1,1.2-2.1,2.4-3.1,3.7A.908.908,0,0,1,69.8,94.5ZM327,90.7a.908.908,0,0,1-.7-.3c-1-1.2-2.1-2.4-3.2-3.6a.919.919,0,0,1,1.3-1.3l.1.1c1.1,1.2,2.2,2.4,3.2,3.6a.942.942,0,0,1-.1,1.3,1.421,1.421,0,0,1-.6.2ZM76.1,87.3a.9.9,0,0,1-.9-.9,1.421,1.421,0,0,1,.2-.6c1.1-1.2,2.2-2.4,3.3-3.5a.922.922,0,0,1,1.4,1.2l-.1.1c-1.1,1.1-2.2,2.3-3.3,3.5A1.072,1.072,0,0,1,76.1,87.3Zm244.4-3.7a.713.713,0,0,1-.6-.3c-1.1-1.1-2.2-2.3-3.4-3.4a.922.922,0,1,1,1.2-1.4l.1.1,3.4,3.4a1.051,1.051,0,0,1,0,1.3,1.329,1.329,0,0,1-.7.3ZM82.8,80.4a.9.9,0,0,1-.9-.9.713.713,0,0,1,.3-.6c1.1-1.1,2.3-2.2,3.5-3.3A.919.919,0,0,1,87,76.9l-.1.1c-1.2,1.1-2.3,2.2-3.5,3.3C83.2,80.3,83,80.4,82.8,80.4Zm230.8-3.5a1.421,1.421,0,0,1-.6-.2c-1.2-1.1-2.4-2.1-3.6-3.2a.936.936,0,0,1,0-1.3,1.048,1.048,0,0,1,1.2-.1c1.2,1,2.4,2.1,3.6,3.2a.853.853,0,0,1,0,1.3.864.864,0,0,1-.6.3Zm-223.8-3a.9.9,0,0,1-.9-.9.908.908,0,0,1,.3-.7c1.2-1.1,2.4-2.1,3.7-3.1a.919.919,0,1,1,1.3,1.3l-.1.1c-1.2,1-2.4,2-3.6,3.1A1.854,1.854,0,0,1,89.8,73.9Zm216.5-3.3a1.421,1.421,0,0,1-.6-.2c-1.2-1-2.5-2-3.7-3a.932.932,0,0,1-.2-1.3c.3-.5.8-.5,1.3-.2l.1.1c1.3,1,2.5,2,3.8,3a.935.935,0,0,1,.1,1.3,1.33,1.33,0,0,1-.8.3Zm-209-2.8a.9.9,0,0,1-.9-.9.908.908,0,0,1,.3-.7c1.3-1,2.6-2,3.9-2.9a.922.922,0,0,1,1.2,1.4l-.1.1c-1.3.9-2.6,1.9-3.8,2.9A3.536,3.536,0,0,0,97.3,67.8Zm201.4-3a.764.764,0,0,1-.5-.2c-1.3-.9-2.6-1.9-3.9-2.8a.837.837,0,0,1-.3-1.2.856.856,0,0,1,1.2-.3.1.1,0,0,1,.1.1c1.3.9,2.6,1.8,3.9,2.8a.948.948,0,0,1,.2,1.3,1.493,1.493,0,0,1-.7.3ZM105,62.2a.9.9,0,0,1-.9-.9.67.67,0,0,1,.4-.7c1.3-.9,2.7-1.8,4-2.7a.93.93,0,1,1,1.1,1.5.1.1,0,0,0-.1.1c-1.3.9-2.7,1.7-4,2.6A4.331,4.331,0,0,1,105,62.2Zm185.8-2.9a.9.9,0,0,1-.5-.1c-1.3-.9-2.7-1.7-4.1-2.5a.932.932,0,0,1-.2-1.3.829.829,0,0,1,1.1-.3c1.4.8,2.8,1.7,4.1,2.6a.954.954,0,0,1,.3,1.2.755.755,0,0,1-.7.4ZM113.1,57a.9.9,0,0,1-.9-.9,1.234,1.234,0,0,1,.4-.8l4.2-2.4a.86.86,0,1,1,1,1.4.1.1,0,0,0-.1.1c-1.4.8-2.8,1.6-4.1,2.4A1.689,1.689,0,0,1,113.1,57Zm169.4-2.6c-.2,0-.3,0-.4-.1-1.4-.8-2.8-1.6-4.2-2.3a.919.919,0,0,1,.7-1.7.1.1,0,0,1,.1.1c1.4.7,2.8,1.5,4.2,2.3a.837.837,0,0,1,.3,1.2A.752.752,0,0,1,282.5,54.4ZM121.4,52.2a.9.9,0,0,1-.9-.9,1.02,1.02,0,0,1,.5-.8c1.4-.7,2.9-1.5,4.3-2.2a.875.875,0,0,1,.9,1.5h-.1c-1.4.7-2.8,1.4-4.2,2.2A.646.646,0,0,1,121.4,52.2ZM274,49.9a.6.6,0,0,1-.4-.1c-1.4-.7-2.9-1.4-4.3-2a.919.919,0,0,1,.7-1.7.1.1,0,0,1,.1.1c1.5.7,2.9,1.4,4.4,2.1a.962.962,0,0,1,.4,1.2,1.489,1.489,0,0,1-.9.4ZM130,48a.9.9,0,0,1-.4-1.7c1.5-.7,2.9-1.3,4.4-1.9a.894.894,0,0,1,.8,1.6.1.1,0,0,0-.1.1c-1.5.6-2.9,1.3-4.4,1.9Zm135.3-2.1a.367.367,0,0,1-.3-.1c-1.5-.6-3-1.2-4.4-1.8a.926.926,0,0,1-.4-1.2,1,1,0,0,1,1.1-.5l4.5,1.8a.883.883,0,0,1,.5,1.2c-.4.4-.7.6-1,.6ZM138.8,44.3a.9.9,0,0,1-.9-.9.76.76,0,0,1,.6-.8c1.5-.6,3-1.2,4.5-1.7a.926.926,0,0,1,1.2.4.962.962,0,0,1-.4,1.2.1.1,0,0,0-.1.1c-1.5.5-3,1.1-4.5,1.7C139,44.2,138.9,44.3,138.8,44.3Zm117.5-1.9a.367.367,0,0,1-.3-.1l-4.5-1.5a.888.888,0,0,1,.5-1.7c1.5.5,3.1,1,4.6,1.6a.883.883,0,0,1,.5,1.2.792.792,0,0,1-.8.5ZM147.8,41a.9.9,0,0,1-.9-.9.76.76,0,0,1,.6-.8c1.5-.5,3.1-1,4.6-1.4a.921.921,0,0,1,1.1.7.8.8,0,0,1-.6,1c-1.5.4-3.1.9-4.6,1.4Zm99.3-1.5h-.3c-1.5-.4-3.1-.9-4.6-1.3a.863.863,0,1,1,.3-1.7h.1c1.6.4,3.1.8,4.7,1.3a.906.906,0,0,1,.6,1.1c0,.3-.4.6-.8.6ZM157,38.3a.9.9,0,0,1-.9-.9.849.849,0,0,1,.7-.8c1.5-.4,3.1-.8,4.7-1.2a.846.846,0,0,1,1,.8.887.887,0,0,1-.6,1c-1.5.4-3.1.7-4.6,1.2A.367.367,0,0,0,157,38.3ZM237.8,37h-.2c-1.5-.4-3.1-.7-4.7-1a.8.8,0,0,1-.6-1.1.993.993,0,0,1,1-.7c1.6.3,3.2.7,4.7,1a.921.921,0,0,1,.7,1.1.8.8,0,0,1-.9.7Zm-71.4-.9a.9.9,0,0,1-.9-.9.961.961,0,0,1,.7-.9c1.6-.3,3.2-.6,4.7-.9a.974.974,0,0,1,1,.8.963.963,0,0,1-.7,1c-1.6.3-3.1.6-4.7.9Zm62-.9h-.2c-1.6-.3-3.2-.5-4.7-.7a.921.921,0,0,1-.7-1.1.961.961,0,0,1,.9-.7c1.6.2,3.2.5,4.8.7a.921.921,0,0,1,.7,1.1c0,.3-.3.6-.8.7Zm-52.6-.7a.9.9,0,0,1-.9-.9.961.961,0,0,1,.7-.9l4.8-.6a.9.9,0,0,1,.9.9.961.961,0,0,1-.7.9c-1.6.2-3.2.4-4.7.6Zm43.1-.7h-.1c-1.6-.2-3.2-.3-4.8-.5a.9.9,0,0,1,0-1.8h.1c1.6.1,3.2.3,4.8.5a.974.974,0,0,1,.8,1,.736.736,0,0,1-.8.8Zm-33.5-.4a.9.9,0,0,1-.9-.9,1.063,1.063,0,0,1,.8-.9c1.6-.1,3.2-.3,4.8-.3a.906.906,0,0,1,.2,1.8h-.1c-1.6,0-3.2.2-4.8.3Zm24-.4h0c-1.6-.1-3.2-.2-4.8-.2a.9.9,0,0,1,0-1.8h0c1.6,0,3.2.1,4.8.2a.9.9,0,0,1,.8,1,.789.789,0,0,1-.8.8ZM195,32.8a.9.9,0,0,1,0-1.8h0c1.6,0,3.2-.1,4.8-.1h0a.9.9,0,1,1,0,1.8h0c-1.6.1-3.2.1-4.8.1Z"/><g class="c"><g class="d"><circle class="b" cx="201.282" cy="199.733" r="157.7"/><path class="e" d="M276.482,277.133c-5.1,27.3-26.9,37.9-30.4,65.4-3.3,26.1-6.5,52.2-10.7,78.2a621.1,621.1,0,0,1-64-2.1c-21.2-1.7-42.2-4.6-62.2-12.4a197.567,197.567,0,0,1-30.6-15.1c9.5-13.9,15.4-29.8,21.8-45.3,6.8-16.6-4.8-32.1.1-49.3,10.6-37.6,32.4-76.8,34.9-115.6,1.4-22.1,7.8-45.4,22.6-62.3,14.9-17.1,40-26.8,62-18.5,13.6,5.1,24.7,15.8,32,28.3a93.909,93.909,0,0,1,8.4,18.9c.6,1.8,1.1,3.5,1.6,5.3a142.036,142.036,0,0,1,3.4,17,216.478,216.478,0,0,1,1.9,26.7C267.282,217.833,280.482,255.933,276.482,277.133Z"/><path class="f" d="M242.382,265.033c-2.9,2.3-6.7,3.2-10.4,4a99.95,99.95,0,0,1-13.3,2.3c-8.7.6-17-1.6-25.6-3.4-.4-5-.9-10.1-1.3-15.1-.4-6.3-1.2-12.6-2.2-18.8l-1.2-5.7c-1.1-4.7-2.5-9.3-3.9-13.9-1.1-3.8-2.3-7.6-3.4-11.4a29.624,29.624,0,0,0,7.7,4c12.3,5.1,24.7,9.7,37.3,14.1a57.773,57.773,0,0,0,11.5,3.2l2.6,22Z"/><path class="g" d="M240.082,246.133a137.513,137.513,0,0,1-39.7-11.7c-4-1.9-8.1-3.9-12.1-6.2-1.1-4.7-2.5-9.3-3.9-13.9-1.1-3.8-2.3-7.6-3.4-11.4a29.624,29.624,0,0,0,7.7,4c12.3,5.1,24.7,9.7,37.3,14.1a57.773,57.773,0,0,0,11.5,3.2Z"/><path class="h" d="M261.182,210.733c-2.1,7.5-5.5,14.5-11.7,19.5a35.587,35.587,0,0,1-19.4,7.5,45.36,45.36,0,0,1-22.6-4.7,56.088,56.088,0,0,1-9.9-6.1,80.655,80.655,0,0,1-14.2-14.4,99.609,99.609,0,0,1-16.1-29.5c-4-12.1-5.1-25-1.4-37.4a46.783,46.783,0,0,1,6.9-14.2,44.972,44.972,0,0,1,57.8-13.2,56.987,56.987,0,0,1,23.4,25.4c1.6,3.3,3,6.8,4.3,10.2C264.682,171.933,266.382,192.233,261.182,210.733Z"/><path class="e" d="M260.382,147.333c-6.2-9.1-12.3-18.6-20.4-25.8a45.333,45.333,0,0,0-26-11.7c-18.5-1.7-40,5.3-51.7,20.2-5.9,7.5-8.6,17-9,26.3s1.5,17.6,3.9,26.8c17.8-1.7,25.3-11.4,34.5-25.6,6.9-10.6,18.618-18.433,20.518-30.733,5.5,7.1,7.782,14.833,14.982,20.333,8.9,6.8,23.6,4.8,34.9,5.6C261.482,150.833,260.982,149.033,260.382,147.333Z"/><path class="i" d="M329.382,468.133c-5.7-8.2-18.3-24.1-18.3-24.1s7.8-104-13.6-148.5c-13.6-14.1-26.9-26.7-46.4-30.4-14.3,23.9-18.6,45.5-21,73.2-3.1,36.8-4,75.6,12.6,108.6,4.6,9.1,10.4,17.6,16.4,25.9a453.678,453.678,0,0,0,52.8,62.1,16.984,16.984,0,0,0,19.7,2.8l18.9-10.1a12.58,12.58,0,0,0,5.2-17v-.1A460.885,460.885,0,0,0,329.382,468.133Z"/><path class="j" d="M279.982,397.033l-16.8,67a73.107,73.107,0,0,1-9.7,23c-14.4,4.4-29.1,8.9-44.2,9a155.882,155.882,0,0,1-23.6-2.3c-12.6-1.9-25.3-4.8-36.2-11.4-.6-4.8-.8-10.4-1.2-15.2l-4.5-54.7a20.424,20.424,0,0,0,10.4,1.3c6.1-.7,12.2-1.4,18.4-2l67-7.5,25.4-2.8C270.782,400.533,274.482,399.733,279.982,397.033Z"/><path class="i" d="M272.582,277.833c-1-2.8-9.5-8.8-9.5-8.8s-50.5-10.2-74.4-7.1a185.983,185.983,0,0,0-35.3,8c-12.6,4.2-23.6,9.2-33.9,17.5-10.6,8.5-20,18.5-28.8,28.8-4.3,5-8.5,10-12.6,15.1-11.9,14.6-24.4,29.2-34.4,45.3-14.4,23.2-24.8,52.8-10.9,78.7,8.3,15.5,22,27.5,35.5,38.4,16,13,33.6,24.8,52.4,33.5a11.351,11.351,0,0,0,14.6-4.4,175.448,175.448,0,0,0,10.4-20.8,15.4,15.4,0,0,0-.8-13.4,324.83,324.83,0,0,0-48.2-63.7c14.4-13.7,28.7-28.2,40.3-44.2a301.219,301.219,0,0,1,.8,41.4c-.2,4-.4,8.2,1.5,11.7,2.4,4.4,7.6,6.5,12.4,8a207.2,207.2,0,0,0,108.8,4.2c7.2-1.7,14.8-4,19.3-10.3,4.1-5.7,5.1-13.1,6.2-19.8a271.42,271.42,0,0,0,3.5-34.9A267.8,267.8,0,0,0,272.582,277.833Z"/><path class="k" d="M252.082,260.133c-.3-1.1-.6-2.2-.8-3.2-.8-4.2,0-9.6-4.7-12.5-2.3-1.4-5.1-1.2-7.8-1.2-3.1,0-6.2,0-9.4-.1a115.115,115.115,0,0,1-19.5-2c-3.3-.6-6.5-1.3-9.8-2.2-2.9-.8-5.8-2.1-8.8-2.4-2.2-.2-4.5.3-5.8,1.8a7.108,7.108,0,0,0-1.3,3.4c-1.1,6-2.2,12.1-1.2,18.2a8.4,8.4,0,0,0,2.4,5.2c3.4,3.2,10.9,4.2,15.5,5.2,15.2,3.2,31.5,3.7,45.8-1.6a12.832,12.832,0,0,0,4.7-2.6C253.182,264.333,252.682,262.233,252.082,260.133Z"/><path class="l" d="M190.082,266.233a.664.664,0,0,1-.5-.4,80.393,80.393,0,0,1-.4-26.8c.1-.3.3-.5.6-.4h0a.56.56,0,0,1,.5.6,78.578,78.578,0,0,0,.4,26.5.458.458,0,0,1-.4.5h-.2Z"/><path class="l" d="M194.882,267.933h0a.56.56,0,0,1-.5-.6,72.288,72.288,0,0,0,.4-12.3l-.3-13.5c0-.4-.1-.5-.1-.5a.481.481,0,0,1-.2-.6v-.1a.605.605,0,0,1,.8-.1,1.371,1.371,0,0,1,.6,1.3l.3,13.5a73.127,73.127,0,0,1-.4,12.4C195.482,267.833,195.182,267.933,194.882,267.933Z"/><path class="l" d="M200.782,269.133a.472.472,0,0,1-.5-.5c0-8.8.2-17.6.8-26.3a.441.441,0,0,1,.6-.4h0a.472.472,0,0,1,.5.5c-.6,8.7-.8,17.5-.8,26.3,0,.2-.3.4-.6.4Z"/><path class="l" d="M205.482,270.133a.472.472,0,0,1-.5-.5,206.706,206.706,0,0,0,.4-26.1.472.472,0,0,1,.5-.5h0a.634.634,0,0,1,.6.5,208.291,208.291,0,0,1-.4,26.2c0,.2-.2.4-.6.4Z"/><path class="l" d="M210.882,271.533h0a.56.56,0,0,1-.5-.6h0a79.6,79.6,0,0,0,.4-13.8v-.5a29.1,29.1,0,0,1,.1-5.9,14.159,14.159,0,0,1,.4-2,15.684,15.684,0,0,0,.5-3.7.472.472,0,0,1,.5-.5h0a.634.634,0,0,1,.6.5,17.373,17.373,0,0,1-.5,3.9c-.1.6-.3,1.3-.4,1.9a36.173,36.173,0,0,0-.1,5.7v.5a72.85,72.85,0,0,1-.4,14C211.382,271.433,211.082,271.633,210.882,271.533Z"/><path class="l" d="M215.482,271.133h0a.56.56,0,0,1-.5-.6h0a109.324,109.324,0,0,0,1.4-24.9.472.472,0,0,1,.5-.5h0a.56.56,0,0,1,.6.5,111.076,111.076,0,0,1-1.4,25.1C215.982,271.033,215.682,271.233,215.482,271.133Z"/><path class="l" d="M221.582,270.933h0a.56.56,0,0,1-.5-.6h0a22.52,22.52,0,0,0,0-5.8,24.583,24.583,0,0,1-.2-2.8c0-2,.1-4.1.3-6.1.3-3.3.6-6.8-.3-10-.1-.2.1-.5.3-.6h.1a.569.569,0,0,1,.7.4c1,3.4.7,6.9.4,10.3q-.3,3-.3,6a24.519,24.519,0,0,0,.2,2.7,20.113,20.113,0,0,1,0,6C222.182,270.833,221.882,271.033,221.582,270.933Z"/><path class="l" d="M226.482,270.633a.536.536,0,0,1-.5-.5,198.886,198.886,0,0,0,.7-24.4.472.472,0,0,1,.5-.5h0a.634.634,0,0,1,.6.5,181.851,181.851,0,0,1-.7,24.5.675.675,0,0,1-.6.4Z"/><path class="l" d="M231.982,269.433a.536.536,0,0,1-.5-.5c.8-7.3,1.6-14.9.1-22.4,0-.3.1-.5.4-.5h.1c.3,0,.6.1.6.4,1.5,7.6.7,15.2-.1,22.7a1.141,1.141,0,0,1-.6.3Z"/><path class="l" d="M236.682,270.233a.472.472,0,0,1-.5-.5l.1-23.3a.536.536,0,0,1,.5-.5h0a.634.634,0,0,1,.6.5l-.1,23.3c0,.3-.2.5-.6.5Z"/><path class="l" d="M242.282,268.733a.472.472,0,0,1-.5-.5,158.781,158.781,0,0,0-.6-21.8.472.472,0,0,1,.5-.5h0a.634.634,0,0,1,.6.5,160.237,160.237,0,0,1,.6,21.9c0,.2-.2.4-.6.4Z"/><path class="l" d="M247.782,266.633h-.1a.548.548,0,0,1-.4-.6h0c.7-1.7.4-3.6.1-5.6a26.956,26.956,0,0,1-.4-2.8v-2.2a16.152,16.152,0,0,0,0-2.2,24.227,24.227,0,0,0-1.9-7,.446.446,0,0,1,.3-.6h.1a.61.61,0,0,1,.7.3,26.369,26.369,0,0,1,2,7.3v2.3a14.719,14.719,0,0,0,0,2.1l.3,2.7c.3,2,.7,4.1-.1,6A.6.6,0,0,1,247.782,266.633Z"/><path class="h" d="M188.482,205.968a18.412,18.412,0,0,1-18.236,3.752,18.781,18.781,0,0,1-11.2-11.613,12.128,12.128,0,0,1-.695-2.948,15.9,15.9,0,0,1,.087-5.36,11.679,11.679,0,0,1,9.032-8.486,13.188,13.188,0,0,1,11.81,4.2l3.561,7.861Z"/><path class="k" d="M269.182,443.733c2.8-1.6,5.6-3,8.2-4.6a17.009,17.009,0,0,0,6.4-6.1,15.862,15.862,0,0,0,1.6-4.1,12.58,12.58,0,0,0,.4-4.3c-.1-1.5-.4-3.1-.6-4.6s-.4-3.2-.6-4.7c-.3-3.2-.5-6.3-.6-9.5s-.1-6.3,0-9.5c.1-6.3.5-12.6.8-18.9.7-12.6,1.7-25.2,1.4-37.8a277.669,277.669,0,0,0-3.1-37.6,278.346,278.346,0,0,1,3.7,37.6c.5,12.6-.3,25.2-.8,37.8-.2,6.3-.5,12.6-.5,18.9,0,3.1,0,6.3.2,9.4s.4,6.3.7,9.4c.2,1.6.4,3.1.6,4.6s.5,3.1.7,4.7a13.938,13.938,0,0,1-.3,5,20.7,20.7,0,0,1-1.8,4.7,17.169,17.169,0,0,1-3.1,4,28.825,28.825,0,0,1-3.9,3c-2.7,1.7-5.5,3.2-8.2,4.8Z"/><path class="k" d="M136.582,283.633a29.4,29.4,0,0,1,7.7,8.4,44.975,44.975,0,0,1,4.7,10.5,72.087,72.087,0,0,1,2.4,11.2,109.175,109.175,0,0,1,.8,11.4c0,3.8-.1,7.6-.4,11.4-.4,3.8-.9,7.6-1.6,11.3a73.865,73.865,0,0,1-7.3,21.5,110.058,110.058,0,0,0,5.3-21.8c.5-3.7.9-7.4,1.2-11.2.2-3.7.4-7.5.3-11.2a105.058,105.058,0,0,0-.6-11.2c-.2-1.9-.4-3.7-.7-5.5s-.7-3.7-1.1-5.5c-.5-1.8-1-3.6-1.6-5.3-.3-.9-.7-1.7-1-2.6-.4-.8-.8-1.7-1.2-2.5A42.466,42.466,0,0,0,136.582,283.633Z"/><path class="k" d="M182.482,270.133a.645.645,0,0,1-.6-.6.675.675,0,0,1,.4-.6,22.5,22.5,0,0,1,2.4-.8.632.632,0,0,1,.4,1.2,22.5,22.5,0,0,1-2.4.8A.139.139,0,0,0,182.482,270.133Z"/><path class="k" d="M127.882,514.233a.367.367,0,0,1-.3-.1l-4.2-2.7a.658.658,0,0,1,.7-1.1l4.2,2.7a.651.651,0,0,1,.2.9.864.864,0,0,1-.6.3Zm-8.5-5.4a.367.367,0,0,1-.3-.1c-1.4-.9-2.8-1.8-4.2-2.8a.652.652,0,1,1,.7-1.1h0c1.4.9,2.8,1.9,4.2,2.8a.651.651,0,0,1,.2.9.713.713,0,0,1-.6.3Zm-8.3-5.6a.756.756,0,0,1-.4-.1c-1.4-.9-2.8-1.9-4.1-2.9a.652.652,0,0,1,.7-1.1h0c1.4,1,2.7,1.9,4.1,2.9a.651.651,0,0,1,.2.9.55.55,0,0,1-.5.3Zm-8.2-5.8a.6.6,0,0,1-.4-.1c-1.4-1-2.7-2-4.1-3a.64.64,0,1,1,.8-1c1.3,1,2.7,2,4,3a.633.633,0,0,1,.1.9c0,.1-.2.2-.4.2Zm-8-6a.6.6,0,0,1-.4-.1c-1.3-1-2.7-2.1-3.9-3.1a.64.64,0,0,1,.8-1h0c1.3,1,2.6,2.1,3.9,3.1a.633.633,0,0,1,.1.9c-.2.1-.3.2-.5.2Zm-7.8-6.3c-.1,0-.3-.1-.4-.1-1.3-1.1-2.6-2.2-3.8-3.3a.636.636,0,1,1,.9-.9c1.2,1.1,2.5,2.2,3.8,3.3a.633.633,0,0,1,.1.9c-.3,0-.4.1-.6.1Zm-7.5-6.7a.52.52,0,0,1-.4-.2c-1.2-1.1-2.5-2.2-3.7-3.4a.64.64,0,0,1,.8-1h0c1.2,1.1,2.5,2.3,3.7,3.4a.561.561,0,0,1,0,.9.373.373,0,0,1-.4.3Zm-7.4-6.8a.52.52,0,0,1-.4-.2c-1.3-1.2-2.5-2.4-3.6-3.5a.636.636,0,0,1,.9-.9h0c1.1,1.1,2.3,2.3,3.6,3.5a.631.631,0,0,1,0,.9C72.482,471.533,72.382,471.633,72.182,471.633Zm-7-7.1c-.2,0-.3-.1-.5-.2-1.2-1.3-2.3-2.5-3.4-3.8a.633.633,0,0,1,.1-.9.642.642,0,0,1,.9.1c1,1.2,2.2,2.5,3.3,3.7a.75.75,0,0,1,0,.9.758.758,0,0,1-.4.2Zm-6.6-7.7a.764.764,0,0,1-.5-.2c-1.1-1.4-2.1-2.7-3-4.1a.651.651,0,0,1,.2-.9.54.54,0,0,1,.8.2c.9,1.3,1.9,2.7,2.9,4a.633.633,0,0,1-.1.9C58.882,456.833,58.782,456.833,58.582,456.833Zm-5.7-8.2a.55.55,0,0,1-.5-.3,49.154,49.154,0,0,1-2.4-4.5.6.6,0,1,1,1.1-.5c.7,1.4,1.5,2.9,2.4,4.4a.651.651,0,0,1-.2.9c-.1-.1-.2,0-.4,0Zm-4.3-9a.675.675,0,0,1-.6-.4,44.192,44.192,0,0,1-1.5-4.8.632.632,0,1,1,1.2-.4h0a36.763,36.763,0,0,0,1.5,4.7.6.6,0,0,1-.4.8.349.349,0,0,0-.2.1Zm-2.6-9.7a.56.56,0,0,1-.6-.5c0-.2-.1-.4-.1-.7a32.529,32.529,0,0,1-.3-4.4.645.645,0,0,1,.6-.6h0a.645.645,0,0,1,.6.6,31.079,31.079,0,0,0,.3,4.3c0,.2.1.4.1.6.1.3-.1.6-.6.7Zm-.1-10h0a.563.563,0,0,1-.6-.7,40.107,40.107,0,0,1,.8-5,.792.792,0,0,1,.8-.5.752.752,0,0,1,.5.7c-.3,1.6-.6,3.2-.8,4.9a.858.858,0,0,1-.7.6Zm2-9.8h-.2a.632.632,0,0,1-.4-.8,45.878,45.878,0,0,1,1.7-4.8.632.632,0,0,1,1.2.4c-.6,1.6-1.2,3.2-1.6,4.7-.2.3-.4.5-.7.5Zm3.6-9.4a.645.645,0,0,1-.6-.6.367.367,0,0,1,.1-.3c.7-1.5,1.4-3,2.2-4.5a.6.6,0,1,1,1.1.5h0c-.8,1.5-1.5,3-2.2,4.5a.675.675,0,0,1-.6.4Zm4.6-8.9a.645.645,0,0,1-.6-.6.367.367,0,0,1,.1-.3c.8-1.4,1.6-2.8,2.5-4.3a.583.583,0,1,1,1,.6h0c-.9,1.5-1.7,2.9-2.5,4.3a.85.85,0,0,1-.5.3Zm5.2-8.6a.367.367,0,0,1-.3-.1.651.651,0,0,1-.2-.9l2.7-4.2a.652.652,0,1,1,1.1.7h0l-2.7,4.2a.864.864,0,0,1-.6.3Zm5.4-8.5a.645.645,0,0,1-.6-.6.367.367,0,0,1,.1-.3c.9-1.4,1.9-2.8,2.8-4.2a.652.652,0,1,1,1.1.7h0c-.9,1.4-1.9,2.8-2.8,4.2a1.421,1.421,0,0,1-.6.2Zm5.6-8.3a.6.6,0,0,1-.4-.1.651.651,0,0,1-.2-.9h0c1-1.4,1.9-2.7,2.9-4.1a.64.64,0,0,1,1,.8c-1,1.4-1.9,2.7-2.9,4.1,0,.1-.2.2-.4.2Zm5.9-8.2a.645.645,0,0,1-.6-.6.6.6,0,0,1,.1-.4c1-1.4,2-2.7,3-4.1a.652.652,0,1,1,1.1.7h0c-1,1.3-2,2.7-3,4-.3.4-.4.4-.6.4Zm5.9-8a.645.645,0,0,1-.6-.6.6.6,0,0,1,.1-.4c1-1.3,2-2.7,3-4a.64.64,0,0,1,1,.8c-1,1.3-2,2.7-3,4a.764.764,0,0,1-.5.2Zm6.1-8a.645.645,0,0,1-.6-.6.6.6,0,0,1,.1-.4c1-1.3,2.1-2.6,3.1-4a.64.64,0,0,1,1,.8h0c-1,1.3-2.1,2.6-3.1,4a.764.764,0,0,1-.5.2Zm6.2-7.9a.645.645,0,0,1-.6-.6.6.6,0,0,1,.1-.4c1-1.3,2.1-2.6,3.1-3.9a.64.64,0,0,1,1,.8c-1,1.3-2.1,2.6-3.1,3.9a.764.764,0,0,1-.5.2Zm6.3-7.8a.645.645,0,0,1-.6-.6.6.6,0,0,1,.1-.4c1.1-1.3,2.1-2.6,3.2-3.9a.64.64,0,1,1,1,.8c-1.1,1.3-2.1,2.6-3.2,3.9a.764.764,0,0,1-.5.2Zm6.3-7.8a.645.645,0,0,1-.6-.6.6.6,0,0,1,.1-.4c1.1-1.3,2.1-2.6,3.2-3.9a.64.64,0,1,1,1,.8h0c-1.1,1.3-2.1,2.6-3.2,3.9a.764.764,0,0,1-.5.2Zm6.4-7.8a.645.645,0,0,1-.6-.6c0-.1.1-.3.1-.4l3.2-3.9a.64.64,0,0,1,1,.8h0l-3.2,3.9c-.2.1-.3.2-.5.2Zm6.4-7.7a.645.645,0,0,1-.6-.6c0-.1.1-.3.1-.4,1.2-1.4,2.3-2.6,3.3-3.8a.636.636,0,0,1,.9.9c-1,1.1-2.1,2.4-3.3,3.7a.758.758,0,0,1-.4.2Zm6.8-7.4a.645.645,0,0,1-.6-.6.52.52,0,0,1,.2-.4c1.3-1.2,2.5-2.4,3.8-3.4a.64.64,0,1,1,.8,1c-1.2,1-2.5,2.1-3.7,3.3a1.087,1.087,0,0,1-.5.1Zm7.7-6.4a.645.645,0,0,1-.6-.6.55.55,0,0,1,.3-.5c1.3-.9,2.8-1.8,4.3-2.7a.583.583,0,1,1,.6,1,42.762,42.762,0,0,0-4.2,2.6c-.2.2-.3.2-.4.2Zm8.7-4.9a.645.645,0,0,1-.6-.6.622.622,0,0,1,.4-.6c1.4-.7,2.9-1.4,4.6-2.1a.6.6,0,0,1,.5,1.1c-1.7.7-3.1,1.4-4.5,2.1a.756.756,0,0,1-.4.1Zm9.2-4a.645.645,0,0,1-.6-.6.822.822,0,0,1,.4-.6c1.1-.4,2.2-.8,3.3-1.3l1.4-.5a.6.6,0,0,1,.5,1.1h0l-1.4.5a30.543,30.543,0,0,0-3.2,1.3.756.756,0,0,1-.4.1Zm9.4-3.6a.645.645,0,0,1-.6-.6.675.675,0,0,1,.4-.6c1.6-.6,3.1-1.2,4.7-1.8a.68.68,0,0,1,.8.4.6.6,0,0,1-.4.8c-1.6.6-3.1,1.2-4.7,1.8Zm9.4-3.5a.645.645,0,0,1-.6-.6.675.675,0,0,1,.4-.6c1.6-.6,3.1-1.1,4.7-1.7a.632.632,0,1,1,.4,1.2c-1.6.6-3.1,1.1-4.7,1.7Z"/><path class="e" d="M217.882,176.733c-.6-3.5-2.9-6-5.2-5.6a3.364,3.364,0,0,0-2,1.3,7.881,7.881,0,0,0-1.1,5.8c.6,3.5,2.9,6,5.2,5.6S218.482,180.233,217.882,176.733Z"/><path class="e" d="M249.582,173.633c-.6-3.4-2.8-5.9-5.1-5.5s-3.6,3.4-3,6.9,2.8,5.9,5.1,5.5S250.182,177.033,249.582,173.633Z"/><path class="m" d="M238.682,191.233a3.381,3.381,0,0,1,.4,3.6,4.91,4.91,0,0,1-3.6,2.3,6.512,6.512,0,0,1-4.7-1.1,3.994,3.994,0,0,1-2-3.4,6.631,6.631,0,0,0,2.9,2.3,5.818,5.818,0,0,0,3.2.4,4.887,4.887,0,0,0,2.7-1.3A3.928,3.928,0,0,0,238.682,191.233Z"/><path class="n" d="M250.282,201.433h0a15.68,15.68,0,0,1-2.2,10.8,16.131,16.131,0,0,1-22.2,4.9c-.7-.5-1.4-1-2.1-1.6a15.672,15.672,0,0,1-4.8-8.8v-.1Z"/><path class="o" d="M248.082,212.233a16.131,16.131,0,0,1-22.2,4.9c-.7-.5-1.4-1-2.1-1.6,1.2-.7,2.4-1.3,3.7-1.9,4.8-2.1,10.2-3.4,15.4-2.7A30.432,30.432,0,0,1,248.082,212.233Z"/><path class="p" d="M247.382,201.933a11.408,11.408,0,0,1-1.1,1.1c-5.8,5.4-17.3,8.7-23.9,3Z"/><path class="p" d="M214.682,174.833a1.561,1.561,0,0,0-1.5,1.6,1.612,1.612,0,0,0,1.5,1.5,1.561,1.561,0,0,0,1.5-1.6A1.612,1.612,0,0,0,214.682,174.833Z"/><path class="p" d="M246.582,171.433a1.561,1.561,0,0,0-1.5,1.6,1.612,1.612,0,0,0,1.5,1.5,1.561,1.561,0,0,0,1.5-1.6A1.7,1.7,0,0,0,246.582,171.433Z"/></g><path class="e" d="M208.6,166.7a12.212,12.212,0,0,1,2.7.1l4.8.4c.5,0,1.2,0,1.4-.5a1.1,1.1,0,0,0,0-.8,2.764,2.764,0,0,0-2.5-1.3,13.926,13.926,0,0,0-7.3.8c-.4.2-3,1.4-2.8,1.9C205,167.9,208.1,166.7,208.6,166.7Z"/><path class="e" d="M246,162.8a10.887,10.887,0,0,0-2.5,1l-4.3,2c-.5.2-1.1.4-1.5,0a.663.663,0,0,1-.2-.7,2.87,2.87,0,0,1,1.9-2.1,13.8,13.8,0,0,1,7.1-1.7c.5,0,3.3.3,3.3.9C249.8,162.7,246.5,162.7,246,162.8Z"/><path class="e" d="M210.6,173.4s-3,.5-3.3-.5c0,0-.2,1.2,2.3,1.9Z"/><path class="e" d="M246.4,169.5s3.1-.2,3.1-1.2c0,0,.5,1.2-1.8,2.4Z"/><path class="g" d="M97.486,359.535s10.073-31.722,27.423-35.788,78.773-8.24,91.43,1.291c3.046,2.294,17.424,41.692,17.424,41.692Z"/><path class="q" d="M107.089,366.673c-.187,0-.374-.3-.374-.6a.89.89,0,0,1,.063-.4c.685-1.3,1.308-2.6,1.994-3.9a.309.309,0,0,1,.561-.1.909.909,0,0,1,.062.9h0c-.685,1.3-1.309,2.6-1.994,3.9a.41.41,0,0,1-.312.2Zm3.989-7.8c-.187,0-.374-.3-.374-.6,0-.1.062-.3.062-.4l1.994-3.9a.309.309,0,0,1,.561-.1.909.909,0,0,1,.062.9h0l-1.994,3.9c-.124.1-.187.2-.311.2Zm3.988-7.7c-.187,0-.374-.3-.374-.6,0-.1.062-.3.062-.4.748-1.4,1.434-2.6,2.057-3.8a.3.3,0,0,1,.561,0,.921.921,0,0,1,0,.9c-.623,1.1-1.309,2.4-2.057,3.7a.442.442,0,0,1-.249.2Zm4.238-7.4c-.187,0-.374-.3-.374-.6a.663.663,0,0,1,.124-.4c.811-1.2,1.558-2.4,2.369-3.4a.309.309,0,0,1,.56.1.909.909,0,0,1-.062.9c-.748,1-1.558,2.1-2.306,3.3a.462.462,0,0,1-.311.1Zm4.8-6.4c-.187,0-.374-.3-.374-.6a.654.654,0,0,1,.187-.5c.81-.9,1.745-1.8,2.68-2.7.187-.2.436-.1.5.2.125.3.063.7-.124.8a28.69,28.69,0,0,0-2.618,2.6c-.124.2-.186.2-.249.2Zm5.422-4.9c-.187,0-.374-.3-.374-.6a.706.706,0,0,1,.249-.6c.873-.7,1.807-1.4,2.867-2.1.187-.1.436,0,.5.3s0,.7-.187.8c-1.059.7-1.931,1.4-2.8,2.1a.335.335,0,0,1-.249.1Zm5.733-4c-.187,0-.374-.3-.374-.6a.942.942,0,0,1,.25-.6,23.345,23.345,0,0,0,2.056-1.3l.872-.5c.187-.1.437,0,.5.3s0,.7-.187.8h0l-.872.5a16.089,16.089,0,0,0-2,1.3.334.334,0,0,1-.249.1Zm5.858-3.6c-.187,0-.374-.3-.374-.6a.755.755,0,0,1,.249-.6c1-.6,1.932-1.2,2.929-1.8.187-.1.437.1.5.4s0,.7-.249.8c-1,.6-1.932,1.2-2.929,1.8Zm5.858-3.5c-.187,0-.374-.3-.374-.6a.755.755,0,0,1,.249-.6c1-.6,1.932-1.1,2.929-1.7.187-.1.437.1.5.4a.836.836,0,0,1-.249.8c-1,.6-1.932,1.1-2.929,1.7Z"/><path class="r" d="M195.716,328.838c-2.927,1.231-6.763,1.712-10.5,2.14-4.441.589-8.882.964-13.424,1.231-8.781.321-17.158-.856-25.839-1.819-.4-2.676-.908-5.4-1.312-8.081-.4-3.372-1.456-11.946-1.406-12.859.008-.144-.216-15.463-1.326-17.5,2.321.91,24.635,11.035,37.352,13.39a101.391,101.391,0,0,0,11.607,1.713L193.5,318.83Z"/><path class="s" d="M205.506,326.216a17.709,17.709,0,0,1-.807-1.713c-.808-2.248,0-5.138-4.744-6.69-2.321-.749-5.147-.642-7.873-.642-3.129,0-6.257,0-9.487-.053-6.662-.054-13.222-.428-19.682-1.071-3.331-.321-6.561-.7-9.891-1.177-2.927-.428-5.854-1.124-8.882-1.284-2.221-.107-4.542.16-5.854.963a3.109,3.109,0,0,0-1.313,1.819c-1.11,3.211-2.22,6.476-1.211,9.74a4.2,4.2,0,0,0,2.423,2.783c3.431,1.713,11,2.248,15.644,2.783,15.342,1.713,31.794,1.98,46.227-.856a18.412,18.412,0,0,0,4.744-1.391C206.617,328.463,206.112,327.339,205.506,326.216Z"/><path class="q" d="M142.928,329.48a.749.749,0,0,1-.5-.214,23.241,23.241,0,0,1-.4-14.343.556.556,0,0,1,.606-.214h0c.3,0,.5.161.5.322a22.721,22.721,0,0,0,.4,14.181c0,.161-.2.268-.4.268h-.2Z"/><path class="q" d="M147.773,330.39h0c-.3,0-.5-.161-.5-.321a20.708,20.708,0,0,0,.4-6.583l-.3-7.225c0-.214-.1-.267-.1-.267-.2-.054-.3-.214-.2-.321v-.054a1.026,1.026,0,0,1,.807-.053c.4.16.707.428.606.7l.3,7.225a20.972,20.972,0,0,1-.4,6.636C148.379,330.336,148.076,330.39,147.773,330.39Z"/><path class="q" d="M153.728,331.032c-.3,0-.5-.107-.5-.268a109.049,109.049,0,0,1,.807-14.074c0-.161.3-.268.606-.215h0c.3,0,.5.107.5.268a109.243,109.243,0,0,0-.807,14.075c0,.107-.3.214-.606.214Z"/><path class="q" d="M158.472,331.567c-.3,0-.5-.107-.5-.267a58.819,58.819,0,0,0,.4-13.968c0-.161.2-.268.5-.268h0a.67.67,0,0,1,.6.268,59.317,59.317,0,0,1-.4,14.021c0,.107-.2.214-.606.214Z"/><path class="q" d="M163.922,332.316h0c-.3,0-.5-.16-.5-.321h0a22.777,22.777,0,0,0,.4-7.385v-.268a8.332,8.332,0,0,1,.1-3.157,4.613,4.613,0,0,1,.4-1.07,4.8,4.8,0,0,0,.5-1.981c0-.16.2-.267.5-.267h0a.674.674,0,0,1,.606.267,5.275,5.275,0,0,1-.5,2.088c-.1.321-.3.695-.4,1.016a10.314,10.314,0,0,0-.1,3.051v.267a20.892,20.892,0,0,1-.4,7.493A.565.565,0,0,1,163.922,332.316Z"/><path class="q" d="M168.565,332.1h0c-.3,0-.5-.16-.5-.321h0a31.661,31.661,0,0,0,1.413-13.325c0-.161.2-.268.5-.268h0c.3,0,.606.107.606.268a32.141,32.141,0,0,1-1.413,13.432A.626.626,0,0,1,168.565,332.1Z"/><path class="q" d="M174.722,332h0c-.3,0-.5-.16-.5-.321h0a6.454,6.454,0,0,0,0-3.1,7.115,7.115,0,0,1-.2-1.5,17.855,17.855,0,0,1,.3-3.265c.3-1.766.606-3.639-.3-5.351-.1-.107.1-.268.3-.322h.1a.73.73,0,0,1,.707.215c1.009,1.819.706,3.692.4,5.512a17.271,17.271,0,0,0-.3,3.211,7.122,7.122,0,0,0,.2,1.445,5.8,5.8,0,0,1,0,3.211A.647.647,0,0,1,174.722,332Z"/><path class="q" d="M179.668,331.835c-.3,0-.5-.161-.5-.268a56.766,56.766,0,0,0,.707-13.058c0-.16.2-.267.5-.267h0a.674.674,0,0,1,.606.267,51.883,51.883,0,0,1-.707,13.112.823.823,0,0,1-.6.214Z"/><path class="q" d="M185.219,331.193c-.3,0-.5-.161-.5-.268.808-3.907,1.615-7.974.1-11.988,0-.16.1-.267.4-.267h.1c.3,0,.606.053.606.214,1.514,4.067.706,8.134-.1,12.148a1.676,1.676,0,0,1-.606.161Z"/><path class="q" d="M189.963,331.621c-.3,0-.5-.107-.5-.268l.1-12.469c0-.161.3-.268.5-.268h0a.67.67,0,0,1,.605.268l-.1,12.469c0,.161-.2.268-.605.268Z"/><path class="q" d="M195.615,330.818c-.3,0-.5-.107-.5-.268a45.33,45.33,0,0,0-.605-11.666c0-.161.2-.268.5-.268h0a.672.672,0,0,1,.606.268,45.746,45.746,0,0,1,.606,11.72c0,.107-.2.214-.606.214Z"/><path class="q" d="M201.166,329.694h-.1c-.3-.053-.4-.16-.4-.321h0c.706-.91.4-1.927.1-3a8.267,8.267,0,0,1-.4-1.5V323.7a4.591,4.591,0,0,0,0-1.177,8.826,8.826,0,0,0-1.918-3.746c-.1-.107,0-.268.3-.321h.1a.882.882,0,0,1,.706.16,9.633,9.633,0,0,1,2.019,3.907v1.231a4.188,4.188,0,0,0,0,1.124l.3,1.445c.3,1.07.706,2.194-.1,3.211A.842.842,0,0,1,201.166,329.694Z"/><path class="t" d="M201.019,248.008s13.028,11.291,12.334,20.5l.026,9.1s3.969,6.53,1.363,11.915S194.07,314.54,194.07,314.54s-4.864,8.165-9.9,9.381-9.033,3.127-21.367-6.254-21.367-15.634-24.494-22.062-3.127-11.638-1.216-13.549-5.385-12.508-4.343-15.635-.1-1.042-.1-1.042l18.863-17.371S168.092,235.153,201.019,248.008Z"/><path class="u" d="M152.1,248.643c-2.115,3.514-10.595,16.931-18.13,19.342,0,0-5.906-3.648-5.559,1.042s-1.566,10.044-4.257,8.583.783-23.7,7.211-26.3c6.213-2.519,11.489-7.016,20.307-3.861A.821.821,0,0,1,152.1,248.643Z"/><path class="u" d="M199.784,247.536s4.188-1.862,7.489,0,14.418,6.9,14.765,11.242-.521,19.282-2.605,20.325c0,0-3.96-3.127-3.8-6.949s-1.234-11.509-2.971-10.618S200.982,249.669,199.784,247.536Z"/><path class="u" d="M165.43,272.365a1.968,1.968,0,0,0,.666-2.788c-1.972-2.966-6.142-7.873-11.111-5.761-6.949,2.953-11.813,5.732-11.813,9.554s.521,12.16,5.559,11.986C153.139,285.2,160.606,275.21,165.43,272.365Z"/><path class="u" d="M194.909,274.564a3.354,3.354,0,0,1-.106-2.193c.643-2.226,2.855-8.042,7.953-5.776,6.254,2.78,6.949.88,6.428,7.736-.483,6.353-.519,11.166-4.944,10.447a3.376,3.376,0,0,1-1.8-.9C200.725,282.223,196.155,277.646,194.909,274.564Z"/><path class="v" d="M172.849,271.939l-7.06,3.157a8.974,8.974,0,0,0-1.688.988c-3.115,2.311-14.714,10.875-20.723,14.708a4.7,4.7,0,0,0,.927,8.391l.2.07c5.806,2,18.017,18.284,21.22,22.661a4.679,4.679,0,0,0,2.137,1.623c2.6.97,8.538,2.846,14.281,2.237,7.643-.811,3.982,1.946,14.476-12.044s19.34-17.024,13.318-23.857S183.974,266.912,181.1,266.08c-2.323-.672-5.147,2.561-6.456,4.36A4.528,4.528,0,0,1,172.849,271.939Z"/><path class="w" d="M197.429,308.516s-10.12,5.674-13.942,5.177-15.266,2.144-18.485-1.075-8.28-7.831-7.064-9.323,13.891-2.266,17.83-3.108.352-3.6,8.459,0,10.644,4.427,11.581,6.464S197.429,308.516,197.429,308.516Z"/><path class="x" d="M181.91,297.169s-.463-13.64-1.5-12.668-.73,13.466-2.814,13.582-23.475,5.687-29.729.707,12.16,15.982,14.708,15.982,6.6-.695,2.432-3.127-6.6-7.244-5.848-8.4c.678-1.043,12.286-1.752,14.589-1.883a2.657,2.657,0,0,0,.772-.161l5.89-2.177s11.812,5.327,12.739,6.253.659,5.635-2.583,7.372,4.031,1.324,4.031,1.324,14.3-16.876,13.144-18c0,0-3.011,10.575-11.928,7.912S184.3,298.718,181.91,297.169Z"/><circle class="y" cx="153.779" cy="275.622" r="5.119"/><circle class="y" cx="202.303" cy="275.5" r="5.119"/><path class="u" d="M189.554,280.84s-5.726-8.686-10.507-7.644-9.991,5.733-9.991,7.644.521,4.021,3.126,3.661,3.648-4.182,2.78-4.182c0,0,2.084-.348,1.563,2.258s-1.737,5.559,2.78,4.864,6.253-.688,2.953-3.819c0,0,.463-5.082,1.5-3.3s.116.513.116.513-1.5,2.322-.347,2.782S189.322,285.82,189.554,280.84Z"/><circle cx="153.653" cy="275.512" r="4.111"/><circle cx="202.073" cy="275.373" r="4.111"/><circle class="z" cx="152.593" cy="272.589" r="1.186"/><circle class="z" cx="199.281" cy="273.109" r="1.186"/><path class="z" d="M187.685,311.257s.12-2.969,1.869-3.526,1.285,2.5.543,3.526-.371,2.783-1.67,2.226S187.685,311.257,187.685,311.257Z"/><path class="z" d="M185.644,309.68s.3-3.211,1.206,0,1.02,3.339,0,3.339A1.993,1.993,0,0,1,185.644,309.68Z"/><path class="z" d="M171.821,311.071s-1.934-3.34.556-1.484,2.227,2.412,1.392,3.432S172.481,312.529,171.821,311.071Z"/><path class="z" d="M169.056,311.189s-1.624-4.736,1-1.509,3.486,3.366,1.047,3.909S170.28,312.421,169.056,311.189Z"/><path class="aa" d="M169.056,256.429c1.93-2.041,3.568-4.546,3.491-1.67s-1.777,1.67-1.994,2.876,1.329,3.154,1.994,4.731-.57,2.6-3.988-2.969-8.52.279-8.52.279l-11.379,5.752s-4.791.853.882-2.125,13-9.379,15.878-7.9,3.618,4.268,2.875,1.485"/><path class="aa" d="M205.126,263.3s-13.836-6.874-15.963-5.575a35.345,35.345,0,0,0,6.686-.743c2.226-.649-.835-3.339-7.144-2.968s-6.587,2.319-5.1,2.6,1.67-2.226,3.154-.927-4.453,5.4-2.969,7.616,1.856-1.288,3.154-3.8,16.143,5.371,17.349,5.464S210.692,269.157,205.126,263.3Z"/><path class="aa" d="M189.163,248.079s-10.125.742-10.116,4.361,1.123,8.831.567,10.863-2.609-2.143-3.068-7.153.934-3.9-.736-3.8-11.912-4.453-9.388-4.268,9.284-1.206,10.124,1.392,10.588-4.134,11.6-2.763S192.5,246.873,189.163,248.079Z"/><path class="ab" d="M193.158,313.693s-8.535-2.945-28.388,0c0,0,.427,2.573,1.652,2.944s20.694-2.988,22.741-1.865S193.738,316.677,193.158,313.693Z"/><circle class="x" cx="155.748" cy="291.612" r="0.951"/><circle class="x" cx="154.797" cy="295.941" r="0.951"/><circle class="x" cx="161.129" cy="293.908" r="0.951"/><circle class="x" cx="166.811" cy="295.941" r="0.951"/><circle class="x" cx="160.707" cy="298.041" r="0.951"/><circle class="x" cx="189.662" cy="298.041" r="0.951"/><circle class="x" cx="195.166" cy="299.406" r="0.951"/><circle class="x" cx="200.232" cy="296.32" r="0.951"/><circle class="x" cx="202.225" cy="300.769" r="0.951"/><path class="t" d="M180.748,275.622a1.376,1.376,0,0,0-2.431-.249C176.8,276.95,180.748,275.622,180.748,275.622Z"/></g></svg>