<svg xmlns="http://www.w3.org/2000/svg" viewBox="0 0 425.197 425.197"><defs><style>.a{fill:#ef4423;}.b{fill:#fde2c3;}.c{fill:#10120e;}.d{fill:#2b2724;}.e{fill:#e2b3c0;}.f{fill:#1e1a17;}.g{fill:#5e361a;}.h{fill:#f3eae3;}.i{fill:#e9cdb5;}.j{fill:#443d36;}</style></defs><circle class="a" cx="212.598" cy="212.598" r="189.583"/><path class="b" d="M140.388,115.226S101.54,148.9,103.611,176.348l-.08,27.148S91.7,222.967,99.468,239.024s61.64,74.59,61.64,74.59,14.5,24.345,29.525,27.971,26.935,9.324,63.712-18.647,63.712-46.619,73.036-65.784,9.324-34.7,3.626-40.4,16.058-37.3,12.95-46.619.305-3.108.305-3.108l-56.248-51.8S238.57,76.9,140.388,115.226Z"/><path class="c" d="M286.272,117.12c6.306,10.477,31.591,50.484,54.059,57.674,0,0,17.611-10.878,16.575,3.108s4.671,29.95,12.695,25.594-2.335-70.659-21.5-78.429c-18.527-7.511-34.26-20.922-60.555-11.514A2.45,2.45,0,0,0,286.272,117.12Z"/><path class="c" d="M144.069,113.818s-12.486-5.551-22.328,0-42.993,20.573-44.029,33.523,1.554,57.5,7.77,60.6c0,0,11.807-9.324,11.342-20.719s3.68-34.317,8.859-31.662S140.5,120.18,144.069,113.818Z"/><path class="c" d="M246.51,187.855a5.867,5.867,0,0,1-1.987-8.312c5.881-8.847,18.314-23.478,33.132-17.181,20.719,8.806,35.223,17.094,35.223,28.489s-1.554,36.259-16.576,35.741C283.158,226.139,260.893,196.339,246.51,187.855Z"/><path class="c" d="M158.607,194.411a10,10,0,0,0,.317-6.538c-1.918-6.639-8.514-23.979-23.715-17.223-18.648,8.288-20.72,2.623-19.166,23.067,1.44,18.943,1.546,33.3,14.74,31.151a10.062,10.062,0,0,0,5.356-2.688C141.264,217.251,154.891,203.6,158.607,194.411Z"/><path class="d" d="M224.387,186.584,245.437,196a26.842,26.842,0,0,1,5.036,2.946c9.286,6.892,43.872,32.429,61.79,43.859a14.022,14.022,0,0,1-2.764,25.02c-.2.071-.392.14-.593.209C291.593,274,255.184,322.549,245.631,335.6a13.951,13.951,0,0,1-6.372,4.84c-7.748,2.893-25.458,8.485-42.583,6.668-22.791-2.417-11.872,5.8-43.165-35.913S95.842,260.434,113.8,240.06s77.415-68.466,85.985-70.945c6.925-2,15.346,7.634,19.251,13A13.51,13.51,0,0,0,224.387,186.584Z"/><path class="e" d="M151.093,295.65s30.177,16.92,41.573,15.437,45.519,6.394,55.118-3.206,24.691-23.351,21.065-27.8-41.422-6.756-53.167-9.267-1.049-10.748-25.222,0-31.738,13.2-34.532,19.274S151.093,295.65,151.093,295.65Z"/><path class="f" d="M197.367,261.815s1.381-40.671,4.489-37.774,2.175,40.155,8.391,40.5,70,16.957,88.645,2.108-36.259,47.655-43.856,47.655-19.684-2.072-7.252-9.324,19.684-21.6,17.439-25.053c-2.021-3.11-36.635-5.226-43.5-5.616a7.9,7.9,0,0,1-2.3-.481l-17.563-6.49s-35.223,15.885-37.986,18.647-1.966,16.8,7.7,21.98-12.02,3.95-12.02,3.95S116.906,261.6,120.36,258.252c0,0,8.978,31.535,35.568,23.592S190.232,266.433,197.367,261.815Z"/><circle class="g" cx="281.251" cy="197.566" r="15.264"/><circle class="g" cx="136.56" cy="197.201" r="15.264"/><path class="c" d="M174.575,213.125s17.075-25.9,31.329-22.792S235.7,207.427,235.7,213.125s-1.554,11.99-9.324,10.916-10.878-12.47-8.288-12.47c0,0-6.216-1.036-4.662,6.734s5.18,16.575-8.287,14.5-18.648-2.052-8.806-11.386c0,0-1.381-15.155-4.489-9.827s-.346,1.53-.346,1.53,4.49,6.926,1.036,8.3S175.266,227.974,174.575,213.125Z"/><circle cx="281.626" cy="197.24" r="12.259"/><circle cx="137.246" cy="196.825" r="12.259"/><circle class="h" cx="284.788" cy="188.523" r="3.537"/><circle class="h" cx="145.57" cy="190.075" r="3.537"/><path class="h" d="M180.149,303.823s-.359-8.852-5.574-10.512-3.831,7.469-1.618,10.512,1.106,8.3,4.979,6.639S180.149,303.823,180.149,303.823Z"/><path class="h" d="M186.235,299.12s-.89-9.572-3.6,0-3.043,9.959,0,9.959S190.108,304.653,186.235,299.12Z"/><path class="h" d="M227.453,303.27s5.764-9.959-1.66-4.427-6.639,7.193-4.15,10.236S225.483,307.616,227.453,303.27Z"/><path class="h" d="M235.7,303.622s4.841-14.124-2.99-4.5-10.4,10.039-3.122,11.659S232.048,307.294,235.7,303.622Z"/><path class="i" d="M235.7,140.335c-5.756-6.085-10.642-13.554-10.412-4.979s5.3,4.979,5.946,8.576-3.963,9.405-5.946,14.108,1.7,7.745,11.892-8.853,25.406.83,25.406.83l33.931,17.151s14.286,2.546-2.63-6.334-38.77-27.968-47.345-23.542-10.789,12.725-8.576,4.427"/><path class="i" d="M128.143,160.834s41.254-20.5,47.6-16.626c0,0-13.3-.276-19.935-2.213s2.489-9.958,21.3-8.852,19.641,6.916,15.215,7.746-4.98-6.639-9.406-2.767,13.278,16.1,8.852,22.712-5.532-3.842-9.405-11.34-48.133,16.015-51.729,16.291S111.545,178.289,128.143,160.834Z"/><path class="i" d="M175.741,115.439s30.191,2.213,30.163,13-3.348,26.336-1.688,32.394,7.779-6.391,9.145-21.329-2.783-11.618,2.2-11.341,35.518-13.278,28-12.725-27.685-3.6-30.191,4.149-31.57-12.325-34.595-8.237S165.8,111.843,175.741,115.439Z"/><path class="j" d="M163.828,311.087s25.45-8.78,84.648,0c0,0-1.273,7.674-4.924,8.78s-61.707-8.912-67.811-5.562S162.1,319.984,163.828,311.087Z"/><circle class="f" cx="275.379" cy="245.247" r="2.836"/><circle class="f" cx="278.215" cy="258.155" r="2.836"/><circle class="f" cx="259.334" cy="252.093" r="2.836"/><circle class="f" cx="242.39" cy="258.155" r="2.836"/><circle class="f" cx="260.591" cy="264.415" r="2.836"/><circle class="f" cx="174.253" cy="264.415" r="2.836"/><circle class="f" cx="157.842" cy="268.487" r="2.836"/><circle class="f" cx="142.735" cy="259.286" r="2.836"/><circle class="f" cx="136.792" cy="272.552" r="2.836"/><path class="b" d="M200.833,197.566s2.717-5.443,7.25-.741S200.833,197.566,200.833,197.566Z"/></svg>